<svg width="64" height="64" viewBox="0 0 64 64" fill="none" xmlns="http://www.w3.org/2000/svg">
<rect width="64" height="64" rx="32" fill="#F7F9FC"/>
<path fill-rule="evenodd" clip-rule="evenodd" d="M33.5834 19.607C33.0964 19.5831 32.5415 19.5832 31.8759 19.5833L31.7413 19.5833L31.6951 19.5833C29.8237 19.5833 28.3568 19.5833 27.1942 19.7116C26.0077 19.8425 25.0479 20.1144 24.2327 20.7214C23.785 21.0548 23.3882 21.4516 23.0548 21.8993C22.4478 22.7145 22.1759 23.6743 22.045 24.8608C21.9167 26.0234 21.9167 27.4903 21.9167 29.3617L21.9167 29.4079V34.3333L21.9167 34.3826C21.9167 36.3755 21.9167 37.9376 22.0611 39.1705C22.2086 40.4299 22.5154 41.4421 23.1982 42.2853C23.451 42.5975 23.7359 42.8824 24.0482 43.1353C24.8913 43.818 25.9036 44.1248 27.1629 44.2723C28.3958 44.4167 29.9579 44.4167 31.9508 44.4167H32.0001H32.0494C34.0423 44.4167 35.6043 44.4167 36.8373 44.2723C38.0966 44.1248 39.1089 43.818 39.952 43.1353C40.2643 42.8824 40.5491 42.5975 40.802 42.2853C41.4848 41.4421 41.7916 40.4299 41.939 39.1705C42.0834 37.9376 42.0834 36.3755 42.0834 34.3826V34.3333V30.2915L42.0834 30.1275V30.1275C42.0836 29.3323 42.0837 28.6667 42.0506 28.0833H38.3334L38.2814 28.0833H38.2814C37.3829 28.0834 36.6337 28.0834 36.0389 28.0034C35.4111 27.919 34.8443 27.7334 34.3889 27.2779C33.9334 26.8224 33.7477 26.2556 33.6633 25.6278C33.5834 25.033 33.5834 24.2838 33.5834 23.3853L33.5834 23.3333V19.607ZM41.8323 26.5833C41.7829 26.4026 41.7237 26.2273 41.6529 26.0548L41.6385 26.0198C41.2005 24.9722 40.3846 24.1567 39.063 22.8356L38.9471 22.7197L38.6883 22.4609L38.5931 22.3657C37.5085 21.2807 36.8398 20.6119 36.0094 20.1949C35.7603 20.0698 35.5024 19.963 35.2378 19.8753C35.1866 19.8583 35.1352 19.8423 35.0834 19.8272V23.3333C35.0834 24.2974 35.085 24.9449 35.1499 25.4279C35.212 25.8894 35.3192 26.0869 35.4495 26.2172C35.5798 26.3475 35.7773 26.4548 36.2388 26.5168C36.7218 26.5817 37.3694 26.5833 38.3334 26.5833H41.8323ZM32.7501 29.6667V30.0834H34.3334C34.7476 30.0834 35.0834 30.4191 35.0834 30.8334C35.0834 31.2476 34.7476 31.5834 34.3334 31.5834H32.0001H31.4167C30.8645 31.5834 30.4167 32.0311 30.4167 32.5834C30.4167 33.1356 30.8645 33.5834 31.4167 33.5834H32.5834C33.9641 33.5834 35.0834 34.7026 35.0834 36.0834C35.0834 37.4081 34.0531 38.4921 32.7501 38.5779V39C32.7501 39.4142 32.4143 39.75 32.0001 39.75C31.5859 39.75 31.2501 39.4142 31.2501 39V38.5834H29.6667C29.2525 38.5834 28.9167 38.2476 28.9167 37.8334C28.9167 37.4191 29.2525 37.0834 29.6667 37.0834L32.0001 37.0834L32.5834 37.0834C33.1357 37.0834 33.5834 36.6356 33.5834 36.0834C33.5834 35.5311 33.1357 35.0834 32.5834 35.0834H31.4167C30.036 35.0834 28.9167 33.9641 28.9167 32.5834C28.9167 31.2586 29.9471 30.1746 31.2501 30.0888V29.6667C31.2501 29.2525 31.5859 28.9167 32.0001 28.9167C32.4143 28.9167 32.7501 29.2525 32.7501 29.6667Z" fill="#22272F"/>
</svg>
