<svg width="64" height="64" viewBox="0 0 64 64" fill="none" xmlns="http://www.w3.org/2000/svg">
<rect width="64" height="64" rx="32" fill="#F7F9FC"/>
<path fill-rule="evenodd" clip-rule="evenodd" d="M28.3333 19.5833L28.2997 19.5833C26.928 19.5833 25.8525 19.5833 24.9882 19.6539C24.108 19.7258 23.3809 19.8747 22.7228 20.21C21.6409 20.7613 20.7612 21.6409 20.21 22.7229C19.8746 23.381 19.7258 24.1081 19.6539 24.9883C19.5832 25.8526 19.5832 26.928 19.5833 28.2998L19.5833 28.3333V35.6666L19.5833 35.7002C19.5832 37.0719 19.5832 38.1474 19.6539 39.0117C19.7258 39.8919 19.8746 40.619 20.21 41.2771C20.7612 42.359 21.6409 43.2387 22.7228 43.7899C23.3809 44.1253 24.108 44.2741 24.9882 44.346C25.8525 44.4167 26.9279 44.4167 28.2995 44.4166H28.2996H28.2996H28.2997H28.3333H35.6666H35.7002H35.7002H35.7003H35.7003C37.072 44.4167 38.1473 44.4167 39.0117 44.346C39.8918 44.2741 40.6189 44.1253 41.277 43.7899C42.359 43.2387 43.2386 42.359 43.7899 41.2771C44.1252 40.619 44.2741 39.8919 44.346 39.0117C44.4166 38.1474 44.4166 37.072 44.4166 35.7004V35.7003V35.7003V35.7002V35.6666V28.3333V28.2997V28.2997V28.2996V28.2996C44.4166 26.9279 44.4166 25.8526 44.346 24.9882C44.2741 24.1081 44.1252 23.381 43.7899 22.7229C43.2386 21.6409 42.359 20.7613 41.277 20.21C40.6189 19.8747 39.8918 19.7258 39.0116 19.6539C38.1473 19.5833 37.0719 19.5833 35.7001 19.5833L35.6666 19.5833H28.3333ZM29.3333 31.25C28.3904 31.25 27.919 31.25 27.6261 30.9571C27.3333 30.6642 27.3333 30.1928 27.3333 29.25L27.3333 22.0845C27.3333 22.0828 27.3333 22.0819 27.3333 22.0805C27.3348 21.5318 27.7817 21.0849 28.3304 21.0833C28.3318 21.0833 28.3323 21.0833 28.3333 21.0833V21.0833H35.6666V21.0833C35.6675 21.0833 35.668 21.0833 35.6694 21.0833C36.2181 21.0849 36.665 21.5318 36.6666 22.0805C36.6666 22.0819 36.6666 22.0828 36.6666 22.0845L36.6666 29.25C36.6666 30.1928 36.6666 30.6642 36.3737 30.9571C36.0808 31.25 35.6094 31.25 34.6666 31.25H29.3333ZM36.6666 34.75C36.6666 33.8072 36.6666 33.3358 36.3737 33.0429C36.0808 32.75 35.6094 32.75 34.6666 32.75H29.3333C28.3904 32.75 27.919 32.75 27.6261 33.0429C27.3333 33.3358 27.3333 33.8072 27.3333 34.75L27.3333 41.9155C27.3333 41.9172 27.3333 41.9181 27.3333 41.9195C27.3348 42.4682 27.7817 42.9151 28.3304 42.9166C28.3318 42.9166 28.3323 42.9166 28.3333 42.9166V42.9166H35.6666V42.9166C35.6675 42.9166 35.668 42.9166 35.6694 42.9166C36.2181 42.9151 36.665 42.4682 36.6666 41.9195C36.6666 41.9181 36.6666 41.9172 36.6666 41.9155L36.6666 34.75ZM22.6666 31.25C22.2524 31.25 21.9166 31.5858 21.9166 32C21.9166 32.4142 22.2524 32.75 22.6666 32.75H24.9999C25.4141 32.75 25.7499 32.4142 25.7499 32C25.7499 31.5858 25.4141 31.25 24.9999 31.25H22.6666ZM21.9166 26.1666C21.9166 25.7524 22.2524 25.4166 22.6666 25.4166H24.9999C25.4141 25.4166 25.7499 25.7524 25.7499 26.1666C25.7499 26.5809 25.4141 26.9166 24.9999 26.9166H22.6666C22.2524 26.9166 21.9166 26.5809 21.9166 26.1666ZM22.6666 37.0833C22.2524 37.0833 21.9166 37.4191 21.9166 37.8333C21.9166 38.2475 22.2524 38.5833 22.6666 38.5833H24.9999C25.4141 38.5833 25.7499 38.2475 25.7499 37.8333C25.7499 37.4191 25.4141 37.0833 24.9999 37.0833H22.6666ZM38.2499 32C38.2499 31.5858 38.5857 31.25 38.9999 31.25H41.3333C41.7475 31.25 42.0833 31.5858 42.0833 32C42.0833 32.4142 41.7475 32.75 41.3333 32.75H38.9999C38.5857 32.75 38.2499 32.4142 38.2499 32ZM38.9999 25.4166C38.5857 25.4166 38.2499 25.7524 38.2499 26.1666C38.2499 26.5809 38.5857 26.9166 38.9999 26.9166H41.3333C41.7475 26.9166 42.0833 26.5809 42.0833 26.1666C42.0833 25.7524 41.7475 25.4166 41.3333 25.4166H38.9999ZM38.2499 37.8333C38.2499 37.4191 38.5857 37.0833 38.9999 37.0833H41.3333C41.7475 37.0833 42.0833 37.4191 42.0833 37.8333C42.0833 38.2475 41.7475 38.5833 41.3333 38.5833H38.9999C38.5857 38.5833 38.2499 38.2475 38.2499 37.8333Z" fill="#22272F"/>
</svg>
