<svg width="64" height="64" viewBox="0 0 64 64" fill="none" xmlns="http://www.w3.org/2000/svg">
<rect width="64" height="64" rx="32" fill="url(#paint0_linear_142_214)"/>
<path fill-rule="evenodd" clip-rule="evenodd" d="M28.3333 19.5833L28.2998 19.5833C26.928 19.5833 25.8526 19.5833 24.9882 19.6539C24.1081 19.7258 23.381 19.8747 22.7229 20.21C21.6409 20.7613 20.7613 21.6409 20.21 22.7229C19.8747 23.381 19.7258 24.1081 19.6539 24.9883C19.5833 25.8526 19.5833 26.928 19.5833 28.2998L19.5833 28.3333V35.6666L19.5833 35.7002C19.5833 37.0719 19.5833 38.1474 19.6539 39.0117C19.7258 39.8919 19.8747 40.619 20.21 41.2771C20.7613 42.359 21.6409 43.2387 22.7229 43.7899C23.381 44.1253 24.1081 44.2741 24.9883 44.346C25.8526 44.4167 26.928 44.4167 28.2996 44.4166H28.2996H28.2997H28.2997H28.3333H35.6666H35.7002H35.7003H35.7003H35.7004C37.072 44.4167 38.1474 44.4167 39.0117 44.346C39.8919 44.2741 40.619 44.1253 41.2771 43.7899C42.359 43.2387 43.2387 42.359 43.7899 41.2771C44.1253 40.619 44.2741 39.8919 44.346 39.0117C44.4167 38.1474 44.4167 37.072 44.4166 35.7004V35.7003V35.7003V35.7002V35.6666V28.3333V28.2997V28.2997V28.2996V28.2996C44.4167 26.9279 44.4167 25.8526 44.346 24.9882C44.2741 24.1081 44.1253 23.381 43.7899 22.7229C43.2387 21.6409 42.359 20.7613 41.2771 20.21C40.619 19.8747 39.8919 19.7258 39.0117 19.6539C38.1474 19.5833 37.0719 19.5833 35.7002 19.5833L35.6666 19.5833H28.3333ZM29.3333 31.25C28.3905 31.25 27.9191 31.25 27.6262 30.9571C27.3333 30.6642 27.3333 30.1928 27.3333 29.25L27.3333 22.0845C27.3333 22.0828 27.3333 22.0819 27.3333 22.0805C27.3349 21.5318 27.7818 21.0849 28.3305 21.0833C28.3319 21.0833 28.3324 21.0833 28.3333 21.0833V21.0833H35.6666V21.0833C35.6676 21.0833 35.6681 21.0833 35.6695 21.0833C36.2182 21.0849 36.6651 21.5318 36.6666 22.0805C36.6666 22.0819 36.6666 22.0828 36.6666 22.0845L36.6666 29.25C36.6666 30.1928 36.6666 30.6642 36.3738 30.9571C36.0809 31.25 35.6095 31.25 34.6666 31.25H29.3333ZM36.6666 34.75C36.6666 33.8072 36.6666 33.3358 36.3738 33.0429C36.0809 32.75 35.6095 32.75 34.6666 32.75H29.3333C28.3905 32.75 27.9191 32.75 27.6262 33.0429C27.3333 33.3358 27.3333 33.8072 27.3333 34.75L27.3333 41.9155C27.3333 41.9172 27.3333 41.9181 27.3333 41.9195C27.3349 42.4682 27.7818 42.9151 28.3305 42.9166C28.3319 42.9166 28.3324 42.9166 28.3333 42.9166V42.9166H35.6666V42.9166C35.6676 42.9166 35.6681 42.9166 35.6695 42.9166C36.2182 42.9151 36.6651 42.4682 36.6666 41.9195C36.6666 41.9181 36.6666 41.9172 36.6666 41.9155L36.6666 34.75ZM22.6666 31.25C22.2524 31.25 21.9166 31.5858 21.9166 32C21.9166 32.4142 22.2524 32.75 22.6666 32.75H25C25.4142 32.75 25.75 32.4142 25.75 32C25.75 31.5858 25.4142 31.25 25 31.25H22.6666ZM21.9166 26.1666C21.9166 25.7524 22.2524 25.4166 22.6666 25.4166H25C25.4142 25.4166 25.75 25.7524 25.75 26.1666C25.75 26.5809 25.4142 26.9166 25 26.9166H22.6666C22.2524 26.9166 21.9166 26.5809 21.9166 26.1666ZM22.6666 37.0833C22.2524 37.0833 21.9166 37.4191 21.9166 37.8333C21.9166 38.2475 22.2524 38.5833 22.6666 38.5833H25C25.4142 38.5833 25.75 38.2475 25.75 37.8333C25.75 37.4191 25.4142 37.0833 25 37.0833H22.6666ZM38.25 32C38.25 31.5858 38.5858 31.25 39 31.25H41.3333C41.7475 31.25 42.0833 31.5858 42.0833 32C42.0833 32.4142 41.7475 32.75 41.3333 32.75H39C38.5858 32.75 38.25 32.4142 38.25 32ZM39 25.4166C38.5858 25.4166 38.25 25.7524 38.25 26.1666C38.25 26.5809 38.5858 26.9166 39 26.9166H41.3333C41.7475 26.9166 42.0833 26.5809 42.0833 26.1666C42.0833 25.7524 41.7475 25.4166 41.3333 25.4166H39ZM38.25 37.8333C38.25 37.4191 38.5858 37.0833 39 37.0833H41.3333C41.7475 37.0833 42.0833 37.4191 42.0833 37.8333C42.0833 38.2475 41.7475 38.5833 41.3333 38.5833H39C38.5858 38.5833 38.25 38.2475 38.25 37.8333Z" fill="white"/>
<defs>
<linearGradient id="paint0_linear_142_214" x1="0" y1="0" x2="64" y2="64" gradientUnits="userSpaceOnUse">
<stop stop-color="#7DD0FF"/>
<stop offset="1" stop-color="#00A3FF"/>
</linearGradient>
</defs>
</svg>
