<svg width="64" height="64" viewBox="0 0 64 64" fill="none" xmlns="http://www.w3.org/2000/svg">
<rect width="64" height="64" rx="32" fill="#F7F9FC"/>
<path fill-rule="evenodd" clip-rule="evenodd" d="M40.8029 20.9697C41.0958 20.6768 41.5707 20.6768 41.8636 20.9697L43.1008 22.2069L43.1223 22.2284C43.5001 22.6061 43.8153 22.9214 44.0518 23.2C44.2985 23.4906 44.5033 23.7902 44.6202 24.1502C44.7997 24.7025 44.7997 25.2975 44.6202 25.8498C44.5033 26.2098 44.2985 26.5094 44.0518 26.8C43.8153 27.0786 43.5001 27.3939 43.1223 27.7716L43.1008 27.7931L37.1969 33.697C36.904 33.9899 36.4291 33.9899 36.1363 33.697L32.6363 30.197C32.3434 29.9041 32.3434 29.4292 32.6363 29.1363L40.8029 20.9697ZM29.7726 32L26.8029 34.9697L19.8029 41.9697C19.51 42.2626 19.51 42.7374 19.8029 43.0303C20.0958 43.3232 20.5707 43.3232 20.8636 43.0303L27.8636 36.0303L30.8333 33.0607L40.8029 43.0303C41.0958 43.3232 41.5707 43.3232 41.8636 43.0303C42.1565 42.7374 42.1565 42.2626 41.8636 41.9697L31.3639 31.47C31.3638 31.4699 31.3637 31.4698 31.3636 31.4697C31.3635 31.4696 31.3633 31.4694 31.3632 31.4693L29.8787 29.9848L30.1828 27.8567L30.1952 27.77C30.2664 27.274 30.3224 26.8839 30.2698 26.5001C30.2234 26.1623 30.1147 25.836 29.949 25.538C29.7609 25.1994 29.482 24.9209 29.1275 24.5669L29.0655 24.505L25.5302 20.9697C25.2374 20.6768 24.7625 20.6768 24.4696 20.9697C24.1767 21.2626 24.1767 21.7374 24.4696 22.0303L28.0049 25.5656C28.4505 26.0112 28.5649 26.1352 28.6379 26.2666C28.7132 26.4021 28.7626 26.5504 28.7837 26.7039C28.8041 26.8529 28.787 27.0207 28.6978 27.6445L28.5529 28.659L22.6136 22.7197C22.3207 22.4268 21.8458 22.4268 21.5529 22.7197C21.26 23.0126 21.26 23.4874 21.5529 23.7803L27.4923 29.7197L26.4778 29.8646C25.854 29.9537 25.6861 29.9708 25.5372 29.9504C25.3836 29.9294 25.2353 29.8799 25.0998 29.8046C24.9685 29.7316 24.8445 29.6172 24.3989 29.1716L20.8636 25.6363C20.5707 25.3434 20.0958 25.3434 19.8029 25.6363C19.51 25.9292 19.51 26.4041 19.8029 26.697L23.3382 30.2323L23.4001 30.2942C23.7542 30.6488 24.0326 30.9276 24.3712 31.1158C24.6693 31.2814 24.9956 31.3902 25.3334 31.4365C25.7172 31.4891 26.1073 31.4331 26.6032 31.3619L26.6899 31.3495L28.8181 31.0455L29.7726 32Z" fill="#22272F"/>
</svg>
