<svg width="64" height="64" viewBox="0 0 64 64" fill="none" xmlns="http://www.w3.org/2000/svg">
<rect width="64" height="64" rx="32" fill="#F7F9FC"/>
<path fill-rule="evenodd" clip-rule="evenodd" d="M38.2499 23.25C38.2499 22.0534 37.2799 21.0833 36.0833 21.0833H35.9896C34.9915 21.0833 34.1115 21.738 33.8247 22.6941L33.0079 25.4166H36.0833C37.2799 25.4166 38.2499 24.4466 38.2499 23.25ZM39.0416 25.4166C39.4869 24.8096 39.7499 24.0605 39.7499 23.25C39.7499 21.2249 38.1083 19.5833 36.0833 19.5833H35.9896C34.3291 19.5833 32.8651 20.6725 32.388 22.2631L31.9999 23.5566L31.6119 22.2631C31.1347 20.6725 29.6708 19.5833 28.0102 19.5833H27.9166C25.8915 19.5833 24.2499 21.2249 24.2499 23.25C24.2499 24.0605 24.5129 24.8096 24.9582 25.4166H22.0833C20.7025 25.4166 19.5833 26.5359 19.5833 27.9166C19.5833 29.2974 20.7025 30.4166 22.0833 30.4166H41.9166C43.2973 30.4166 44.4166 29.2974 44.4166 27.9166C44.4166 26.5359 43.2973 25.4166 41.9166 25.4166H39.0416ZM27.9166 25.4166H30.9919L30.1751 22.6941C29.8883 21.738 29.0083 21.0833 28.0102 21.0833H27.9166C26.72 21.0833 25.7499 22.0534 25.7499 23.25C25.7499 24.4466 26.72 25.4166 27.9166 25.4166ZM24.5591 32.4166L24.5866 32.4166H39.4133L39.4408 32.4166C39.7532 32.4166 40.0315 32.4166 40.2625 32.4355C40.509 32.4556 40.7668 32.5009 41.0185 32.6292C41.3854 32.8161 41.6838 33.1144 41.8707 33.4814C41.999 33.7331 42.0443 33.9909 42.0644 34.2374C42.0833 34.4684 42.0833 34.7466 42.0833 35.059V35.0591V35.0866V38.8666V38.8988C42.0833 39.7116 42.0833 40.3672 42.0399 40.8981C41.9952 41.4448 41.9009 41.9249 41.6745 42.3691C41.315 43.0747 40.7413 43.6484 40.0357 44.0079C39.5915 44.2343 39.1114 44.3286 38.5647 44.3733C38.0338 44.4167 37.3782 44.4167 36.5654 44.4166H36.5332H27.4666H27.4345C26.6216 44.4167 25.966 44.4167 25.4351 44.3733C24.8885 44.3286 24.4083 44.2343 23.9641 44.0079C23.2585 43.6484 22.6848 43.0747 22.3253 42.3691C22.099 41.9249 22.0046 41.4448 21.9599 40.8981C21.9166 40.3672 21.9166 39.7116 21.9166 38.8988L21.9166 38.8666V35.0866L21.9166 35.0591C21.9166 34.7467 21.9166 34.4684 21.9354 34.2374C21.9556 33.9909 22.0009 33.7331 22.1291 33.4814C22.3161 33.1144 22.6144 32.8161 22.9813 32.6292C23.233 32.5009 23.4909 32.4556 23.7374 32.4355C23.9683 32.4166 24.2466 32.4166 24.5591 32.4166Z" fill="#22272F"/>
</svg>
