<svg width="64" height="64" viewBox="0 0 64 64" fill="none" xmlns="http://www.w3.org/2000/svg">
<rect width="64" height="64" rx="32" fill="#F7F9FC"/>
<path fill-rule="evenodd" clip-rule="evenodd" d="M19.7502 19.9166H19.7501L19.1668 19.9167C18.7526 19.9168 18.4168 19.581 18.4167 19.1668C18.4167 18.7526 18.7524 18.4168 19.1667 18.4167L19.75 18.4166L19.7501 19.1666L19.7501 18.4166L19.8255 18.4166C20.376 18.4165 20.7538 18.4164 21.1001 18.4819C22.2492 18.699 23.2312 19.4397 23.7556 20.485C23.9136 20.7999 24.0174 21.1633 24.1685 21.6926L24.1685 21.6926L24.1685 21.6926L24.1892 21.7651L24.2325 21.9167H38.549H38.5855C39.6229 21.9167 40.4516 21.9167 41.1094 21.9752C41.7801 22.0348 42.3631 22.1608 42.8693 22.4719C43.6608 22.9584 44.2435 23.7213 44.5045 24.6129C44.6715 25.1831 44.6397 25.7787 44.5207 26.4414C44.4041 27.0914 44.186 27.891 43.9131 28.8918L43.9035 28.927L43.3432 30.9813L43.2974 31.1493L43.2974 31.1493C42.8815 32.676 42.6144 33.6566 42.0376 34.4034C41.5297 35.061 40.8582 35.5739 40.0901 35.8909C39.2179 36.2508 38.2015 36.2505 36.6192 36.2501L36.4451 36.25H32.1609L31.9891 36.2501H31.989C30.4248 36.2505 29.4199 36.2508 28.5546 35.8974C27.7926 35.5862 27.1245 35.0822 26.6158 34.435C26.0383 33.7001 25.7625 32.7338 25.3332 31.2296L25.286 31.0643L22.9456 22.8728L22.7469 22.1772C22.5671 21.5479 22.5017 21.3307 22.4149 21.1577C22.1003 20.5305 21.511 20.0861 20.8216 19.9558C20.6314 19.9198 20.4046 19.9167 19.7502 19.9166H19.7502ZM26.5834 41.3333C26.5834 39.6304 27.9639 38.25 29.6667 38.25C31.3696 38.25 32.7501 39.6304 32.7501 41.3333C32.7501 43.0362 31.3696 44.4166 29.6667 44.4166C27.9639 44.4166 26.5834 43.0362 26.5834 41.3333ZM39.0001 38.25C37.2972 38.25 35.9167 39.6304 35.9167 41.3333C35.9167 43.0362 37.2972 44.4166 39.0001 44.4166C40.703 44.4166 42.0834 43.0362 42.0834 41.3333C42.0834 39.6304 40.703 38.25 39.0001 38.25Z" fill="#22272F"/>
</svg>
