<svg width="64" height="64" viewBox="0 0 64 64" fill="none" xmlns="http://www.w3.org/2000/svg">
<rect width="64" height="64" rx="32" fill="#F7F9FC"/>
<path fill-rule="evenodd" clip-rule="evenodd" d="M29.8993 19.5833H29.9333H34.0666H34.1005C35.752 19.5833 37.0374 19.5833 38.0684 19.6675C39.1153 19.7531 39.9659 19.9292 40.731 20.319C42.0011 20.9662 43.0337 21.9988 43.6809 23.2689C44.0707 24.034 44.2468 24.8846 44.3324 25.9315C44.4166 26.9625 44.4166 28.2479 44.4166 29.8993V29.8993V29.8994V29.9333V34.0666V34.1006V34.1007V34.1007C44.4166 35.7521 44.4166 37.0374 44.3324 38.0685C44.2468 39.1154 44.0707 39.966 43.6809 40.7311C43.0337 42.0012 42.0011 43.0338 40.731 43.6809C39.9659 44.0708 39.1153 44.2469 38.0684 44.3324C37.0374 44.4167 35.752 44.4167 34.1006 44.4166H34.1006H34.1005H34.0666H29.9333H29.8993H29.8992H29.8992C28.2478 44.4167 26.9625 44.4167 25.9314 44.3324C24.8845 44.2469 24.0339 44.0708 23.2688 43.6809C21.9987 43.0338 20.9661 42.0012 20.319 40.7311C19.9291 39.966 19.753 39.1154 19.6675 38.0685C19.5832 37.0374 19.5832 35.752 19.5833 34.1006V34.0666V29.9333V29.8994C19.5832 28.2479 19.5832 26.9625 19.6675 25.9315C19.753 24.8846 19.9291 24.034 20.319 23.2689C20.9661 21.9988 21.9987 20.9662 23.2688 20.319C24.0339 19.9292 24.8845 19.7531 25.9314 19.6675C26.9625 19.5833 28.2479 19.5833 29.8993 19.5833ZM32.7499 27.3333C32.7499 26.9191 32.4141 26.5833 31.9999 26.5833C31.5857 26.5833 31.2499 26.9191 31.2499 27.3333V31.25H27.3333C26.919 31.25 26.5833 31.5858 26.5833 32C26.5833 32.4142 26.919 32.75 27.3333 32.75H31.2499V36.6666C31.2499 37.0809 31.5857 37.4166 31.9999 37.4166C32.4141 37.4166 32.7499 37.0809 32.7499 36.6666V32.75H36.6666C37.0808 32.75 37.4166 32.4142 37.4166 32C37.4166 31.5858 37.0808 31.25 36.6666 31.25H32.7499V27.3333Z" fill="#22272F"/>
</svg>
