<svg width="64" height="64" viewBox="0 0 64 64" fill="none" xmlns="http://www.w3.org/2000/svg">
<rect width="64" height="64" rx="32" fill="#F7F9FC"/>
<path fill-rule="evenodd" clip-rule="evenodd" d="M30.4668 18.8612C31.4701 18.5837 32.5298 18.5837 33.5331 18.8612C34.1387 19.0288 34.6865 19.3248 35.2918 19.7402C35.884 20.1467 36.5706 20.696 37.443 21.3939L37.4431 21.394L37.466 21.4123L41.1327 24.3457L41.2226 24.4176L41.2226 24.4176C42.2393 25.2308 42.8651 25.7313 43.3221 26.3617C43.7264 26.9194 44.0272 27.5452 44.2101 28.2093C44.4169 28.9599 44.4168 29.7612 44.4166 31.0632L44.4166 31.1783V35.6666V35.7002V35.7002V35.7003C44.4166 37.072 44.4166 38.1474 44.346 39.0117C44.2741 39.8918 44.1252 40.6189 43.7899 41.2771C43.2386 42.359 42.359 43.2386 41.277 43.7899C40.6189 44.1252 39.8918 44.2741 39.0117 44.346C38.1473 44.4166 37.0719 44.4166 35.7003 44.4166H35.7002H35.7002H35.6666H28.3333H28.2997H28.2997H28.2996C26.9279 44.4166 25.8525 44.4166 24.9882 44.346C24.1081 44.2741 23.381 44.1252 22.7228 43.7899C21.6409 43.2386 20.7613 42.359 20.21 41.2771C19.8747 40.6189 19.7258 39.8918 19.6539 39.0117C19.5833 38.1473 19.5833 37.0719 19.5833 35.7002L19.5833 35.6666V31.1783L19.5833 31.0632C19.5831 29.7612 19.583 28.9599 19.7898 28.2093C19.9727 27.5452 20.2735 26.9194 20.6778 26.3617C21.1348 25.7313 21.7605 25.2308 22.7773 24.4176L22.7773 24.4176L22.8672 24.3457L26.5339 21.4124L26.5568 21.394C27.4292 20.6961 28.1159 20.1467 28.7081 19.7402C29.3133 19.3248 29.8612 19.0288 30.4668 18.8612ZM31.6999 32H32.2999C33.42 32 33.9801 32 34.4079 32.2179C34.7842 32.4097 35.0902 32.7156 35.282 33.092C35.4999 33.5198 35.4999 34.0798 35.4999 35.2V39.3333C35.4999 40.2761 35.4999 40.7475 35.207 41.0404C34.9142 41.3333 34.4428 41.3333 33.4999 41.3333H30.4999C29.5571 41.3333 29.0857 41.3333 28.7928 41.0404C28.4999 40.7475 28.4999 40.2761 28.4999 39.3333V35.2C28.4999 34.0798 28.4999 33.5198 28.7179 33.092C28.9097 32.7156 29.2156 32.4097 29.592 32.2179C30.0198 32 30.5798 32 31.6999 32Z" fill="#22272F"/>
</svg>
