<svg width="64" height="64" viewBox="0 0 64 64" fill="none" xmlns="http://www.w3.org/2000/svg">
<rect width="64" height="64" rx="32" fill="#F7F9FC"/>
<path fill-rule="evenodd" clip-rule="evenodd" d="M31.9366 19.5833L32.0001 19.5833L32.0635 19.5833C32.6221 19.5833 32.9773 19.5832 33.2867 19.624C35.4182 19.9046 37.0955 21.5818 37.3761 23.7133C37.4001 23.8954 37.4099 24.0934 37.4139 24.3394C38.2064 24.4138 38.8743 24.5535 39.4941 24.828C40.8791 25.4412 42.0176 26.5024 42.7264 27.841C43.0801 28.5087 43.2709 29.2478 43.4023 30.1572C43.5316 31.0523 43.61 32.1663 43.7105 33.596L43.7126 33.6261L43.7149 33.6585L43.7149 33.6587C43.8291 35.2829 43.9179 36.5457 43.9103 37.562C43.9026 38.5923 43.797 39.4354 43.4843 40.2057C42.8601 41.7432 41.6914 42.997 40.2015 43.7274C39.455 44.0934 38.6214 44.2579 37.5942 44.3378C36.5809 44.4167 35.315 44.4167 33.6866 44.4167H33.6541H30.346H30.3135C28.6851 44.4167 27.4192 44.4167 26.4059 44.3378C25.3787 44.2579 24.5451 44.0934 23.7987 43.7274C22.3087 42.997 21.14 41.7432 20.5158 40.2057C20.2031 39.4354 20.0975 38.5923 20.0898 37.562C20.0822 36.5457 20.171 35.2829 20.2852 33.6585L20.2875 33.6261L20.2896 33.596C20.3902 32.1663 20.4685 31.0523 20.5978 30.1572C20.7292 29.2478 20.92 28.5087 21.2737 27.841C21.9825 26.5024 23.121 25.4412 24.506 24.828C25.1258 24.5535 25.7937 24.4138 26.5862 24.3394C26.5902 24.0934 26.6001 23.8954 26.624 23.7133C26.9046 21.5818 28.5819 19.9046 30.7134 19.624C31.0228 19.5832 31.378 19.5833 31.9366 19.5833ZM35.9121 24.2636C35.2658 24.25 34.5301 24.25 33.6843 24.25H33.6541H30.346H30.3159C29.47 24.25 28.7343 24.25 28.088 24.2636C28.0919 24.1095 28.0987 24.0037 28.1112 23.9091C28.3032 22.4507 29.4508 21.3031 30.9092 21.1111C31.1081 21.0849 31.357 21.0833 32.0001 21.0833C32.6431 21.0833 32.892 21.0849 33.0909 21.1111C34.5493 21.3031 35.6969 22.4507 35.8889 23.9091C35.9014 24.0037 35.9083 24.1095 35.9121 24.2636Z" fill="#22272F"/>
</svg>
