<svg width="64" height="64" viewBox="0 0 64 64" fill="none" xmlns="http://www.w3.org/2000/svg">
<rect width="64" height="64" rx="32" fill="#F7F9FC"/>
<path fill-rule="evenodd" clip-rule="evenodd" d="M26.2999 19.5834L26.2678 19.5834C25.455 19.5834 24.7994 19.5834 24.2684 19.6267C23.7218 19.6714 23.2417 19.7658 22.7974 19.9921C22.0918 20.3516 21.5182 20.9253 21.1586 21.6309C20.9323 22.0751 20.8379 22.5553 20.7933 23.1019C20.7499 23.6328 20.7499 24.2884 20.7499 25.1013L20.7499 25.1013L20.7499 25.1334L20.7499 31L20.7499 31.0336C20.7499 32.4053 20.7499 33.4808 20.8205 34.3451C20.8924 35.2252 21.0413 35.9524 21.3766 36.6105C21.9279 37.6924 22.8075 38.5721 23.8895 39.1233C24.5476 39.4587 25.2747 39.6075 26.1548 39.6794C27.0192 39.75 28.0946 39.75 29.4662 39.75L29.4662 39.75L29.4663 39.75L29.4663 39.75L29.4999 39.75L32.1666 39.75L32.2002 39.75L32.2002 39.75L32.2003 39.75L32.2003 39.75C33.5719 39.75 34.6473 39.75 35.5116 39.6794C36.3918 39.6075 37.1189 39.4587 37.777 39.1233C38.859 38.5721 39.7386 37.6924 40.2899 36.6105C40.6252 35.9524 40.7741 35.2252 40.846 34.3451C40.8572 34.2076 40.8666 34.0648 40.8746 33.9163C41.2452 33.9149 41.5664 33.9094 41.8412 33.887C42.2211 33.8559 42.5778 33.7888 42.9151 33.617C43.4325 33.3533 43.8532 32.9326 44.1168 32.4152C44.2887 32.0779 44.3558 31.7213 44.3868 31.3414C44.4166 30.9771 44.4166 30.5313 44.4166 29.9971L44.4166 29.9667L44.4166 28.2L44.4166 28.1696C44.4166 27.6355 44.4166 27.1896 44.3868 26.8254C44.3558 26.4455 44.2887 26.0888 44.1168 25.7516C43.8532 25.2341 43.4325 24.8134 42.9151 24.5498C42.5778 24.3779 42.2211 24.3108 41.8412 24.2798C41.5763 24.2581 41.2682 24.2522 40.9143 24.2506C40.9105 23.8138 40.9003 23.4335 40.8732 23.1019C40.8286 22.5553 40.7342 22.0751 40.5079 21.6309C40.1483 20.9253 39.5746 20.3516 38.869 19.9921C38.4248 19.7658 37.9447 19.6714 37.398 19.6267C36.8671 19.5834 36.2115 19.5834 35.3987 19.5834L35.3666 19.5834L26.2999 19.5834ZM40.9166 25.7507L40.9166 31L40.9166 31.0336L40.9166 31.0337L40.9166 31.0337L40.9166 31.0338C40.9166 31.5323 40.9166 31.9917 40.9132 32.416C41.2512 32.4145 41.5077 32.4092 41.7191 32.392C42.0062 32.3685 42.1435 32.3266 42.2341 32.2805C42.4693 32.1606 42.6605 31.9694 42.7803 31.7342C42.8265 31.6436 42.8684 31.5064 42.8918 31.2192C42.916 30.9234 42.9166 30.5391 42.9166 29.9667L42.9166 28.2C42.9166 27.6276 42.916 27.2434 42.8918 26.9475C42.8684 26.6604 42.8265 26.5231 42.7803 26.4326C42.6605 26.1974 42.4693 26.0061 42.2341 25.8863C42.1435 25.8401 42.0062 25.7983 41.7191 25.7748C41.5084 25.7576 41.2529 25.7523 40.9166 25.7507ZM19.5832 43.6667C19.5832 43.2525 19.919 42.9167 20.3332 42.9167L41.3332 42.9167C41.7475 42.9167 42.0832 43.2525 42.0832 43.6667C42.0832 44.0809 41.7475 44.4167 41.3332 44.4167L20.3332 44.4167C19.919 44.4167 19.5832 44.0809 19.5832 43.6667Z" fill="#22272F"/>
</svg>
