<svg width="64" height="64" viewBox="0 0 64 64" fill="none" xmlns="http://www.w3.org/2000/svg">
<rect width="64" height="64" rx="32" fill="#F7F9FC"/>
<path fill-rule="evenodd" clip-rule="evenodd" d="M35.5001 19.5834C35.0859 19.5834 34.7501 19.9192 34.7501 20.3334C34.7501 20.7476 35.0859 21.0834 35.5001 21.0834C37.6632 21.0834 39.4167 22.8369 39.4167 25C39.4167 27.1632 37.6632 28.9167 35.5001 28.9167C35.0859 28.9167 34.7501 29.2525 34.7501 29.6667C34.7501 30.0809 35.0859 30.4167 35.5001 30.4167C38.4916 30.4167 40.9167 27.9916 40.9167 25C40.9167 22.0085 38.4916 19.5834 35.5001 19.5834ZM37.8334 33.5834C37.4192 33.5834 37.0834 33.9192 37.0834 34.3334C37.0834 34.7476 37.4192 35.0834 37.8334 35.0834H39.2334C41.912 35.0834 44.0834 37.2548 44.0834 39.9334C44.0834 41.581 42.7477 42.9167 41.1001 42.9167H37.8334C37.4192 42.9167 37.0834 43.2525 37.0834 43.6667C37.0834 44.0809 37.4192 44.4167 37.8334 44.4167H41.1001C43.5762 44.4167 45.5834 42.4095 45.5834 39.9334C45.5834 36.4264 42.7404 33.5834 39.2334 33.5834H37.8334ZM21.9167 25C21.9167 22.0085 24.3419 19.5834 27.3334 19.5834C30.325 19.5834 32.7501 22.0085 32.7501 25C32.7501 27.9916 30.325 30.4167 27.3334 30.4167C24.3419 30.4167 21.9167 27.9916 21.9167 25ZM24.7668 33.5834C21.2597 33.5834 18.4167 36.4264 18.4167 39.9334C18.4167 42.4095 20.424 44.4167 22.9001 44.4167H31.7667C34.2428 44.4167 36.2501 42.4095 36.2501 39.9334C36.2501 36.4264 33.4071 33.5834 29.9001 33.5834H24.7668Z" fill="#22272F"/>
</svg>
