<svg width="64" height="64" viewBox="0 0 64 64" fill="none" xmlns="http://www.w3.org/2000/svg">
<rect width="64" height="64" rx="32" fill="#F7F9FC"/>
<path fill-rule="evenodd" clip-rule="evenodd" d="M32.4577 22.208L32.4577 22.208L26.0251 28.6412C24.4411 30.2252 23.6491 31.0173 23.3524 31.9306C23.0914 32.7339 23.0914 33.5993 23.3525 34.4027C23.5063 34.8762 23.7933 35.3171 24.2548 35.8526C24.8496 36.543 25.147 36.8881 25.5828 36.9043C26.0186 36.9205 26.3633 36.5758 27.0528 35.8863L27.9694 34.9697C28.2623 34.6768 28.7372 34.6768 29.0301 34.9697C29.323 35.2625 29.323 35.7374 29.0301 36.0303L28.1134 36.947C27.424 37.6364 27.0792 37.9811 27.0954 38.417C27.1116 38.8528 27.4568 39.1502 28.1471 39.745C28.6827 40.2064 29.1236 40.4934 29.5971 40.6473C30.4005 40.9083 31.2659 40.9083 32.0693 40.6472C32.9827 40.3504 33.7747 39.5583 35.3587 37.9741L41.7913 31.5411L41.7913 31.5411L41.7913 31.5411L41.7914 31.541C42.483 30.8493 42.8289 30.5034 43.0762 30.0998C43.2955 29.7419 43.4571 29.3517 43.5551 28.9436C43.6656 28.4833 43.6656 27.9941 43.6656 27.0158V25.1333C43.6656 23.4532 43.6656 22.6131 43.3386 21.9713C43.051 21.4069 42.5921 20.9479 42.0276 20.6603C41.3858 20.3333 40.5458 20.3333 38.8656 20.3333L36.9834 20.3333C36.005 20.3333 35.5158 20.3333 35.0554 20.4438C34.6472 20.5418 34.257 20.7035 33.8991 20.9228C33.4954 21.1702 33.1495 21.5161 32.4577 22.208ZM37.8361 28.4994C37.8361 29.7881 36.7914 30.8327 35.5028 30.8327C34.2141 30.8327 33.1694 29.7881 33.1694 28.4994C33.1694 27.2107 34.2141 26.1661 35.5028 26.1661C36.7914 26.1661 37.8361 27.2107 37.8361 28.4994ZM24.2089 28.1248C23.8684 28.4653 23.6982 28.6356 23.4981 28.7117C23.3218 28.7789 23.1301 28.7947 22.9451 28.7575C22.7353 28.7153 22.5394 28.5753 22.1475 28.2954L20.7041 27.2644C20.1753 26.8867 19.9109 26.6978 19.7999 26.4556C19.7025 26.243 19.6826 26.0031 19.7438 25.7774C19.8135 25.5202 20.0432 25.2905 20.5027 24.831L21.434 23.8998L21.434 23.8998L21.434 23.8998C22.0981 23.2356 22.4302 22.9036 22.8232 22.6937C23.171 22.5079 23.5521 22.3925 23.9447 22.3542C24.388 22.3108 24.8485 22.4029 25.7695 22.5871L27.6176 22.9568C28.0937 23.052 28.3318 23.0996 28.4432 23.2252C28.5402 23.3345 28.5845 23.4808 28.5644 23.6257C28.5414 23.7919 28.3697 23.9636 28.0264 24.3069L24.2089 28.1248ZM40.1006 42.5667C40.7649 41.9025 41.097 41.5704 41.3069 41.1773C41.4927 40.8294 41.6081 40.4482 41.6464 40.0557C41.6897 39.6122 41.5975 39.1516 41.4132 38.2305L41.0432 36.3822C40.9479 35.9061 40.9003 35.6681 40.7747 35.5567C40.6654 35.4597 40.519 35.4154 40.3742 35.4355C40.208 35.4586 40.0364 35.6303 39.6931 35.9736L35.8757 39.7915C35.5353 40.132 35.3651 40.3023 35.2889 40.5023C35.2218 40.6786 35.206 40.8703 35.2432 41.0552C35.2854 41.2651 35.4253 41.461 35.7052 41.8528L36.7363 43.2963C37.114 43.8251 37.3029 44.0895 37.5451 44.2005C37.7576 44.2979 37.9976 44.3178 38.2233 44.2566C38.4804 44.1869 38.7102 43.9572 39.1696 43.4977L39.1697 43.4977L40.1006 42.5667Z" fill="#22272F"/>
</svg>
