<svg width="64" height="64" viewBox="0 0 64 64" fill="none" xmlns="http://www.w3.org/2000/svg">
<path fill-rule="evenodd" clip-rule="evenodd" d="M30.374 19.8524C29.7002 19.5824 28.9436 19.5828 27.8498 19.5833L27.7028 19.5833H26.3333L26.2784 19.5833C24.9108 19.5833 23.8085 19.5833 22.9416 19.6999C22.0415 19.8209 21.2836 20.0798 20.6817 20.6817C20.0797 21.2836 19.8209 22.0415 19.6998 22.9416C19.5833 23.8086 19.5833 24.9109 19.5833 26.2785L19.5833 26.3333V35.6667L19.5833 35.7231C19.5833 37.5609 19.5833 39.0165 19.7364 40.1557C19.8941 41.3281 20.2262 42.2771 20.9746 43.0254C21.7229 43.7738 22.6719 44.1059 23.8443 44.2635C24.9835 44.4167 26.4391 44.4167 28.2769 44.4167H28.2769H28.3333H35.6666H35.7231H35.7231C37.5608 44.4167 39.0165 44.4167 40.1557 44.2635C41.3281 44.1059 42.277 43.7738 43.0254 43.0254C43.7738 42.2771 44.1059 41.3281 44.2635 40.1557C44.4167 39.0165 44.4167 37.5609 44.4166 35.7231V35.7231V35.6667V33V32.9436V32.9436C44.4167 31.1058 44.4167 29.6502 44.2635 28.511C44.1059 27.3386 43.7738 26.3896 43.0254 25.6413C42.277 24.8929 41.3281 24.5608 40.1557 24.4031C39.0165 24.25 37.5608 24.25 35.7231 24.25L35.6666 24.25H35.2536C34.3662 24.25 34.1296 24.2372 33.9378 24.1603C33.804 24.1067 33.6806 24.0304 33.5728 23.9348C33.4183 23.7976 33.301 23.5917 32.9041 22.7979L32.8384 22.6664C32.3498 21.6879 32.0117 21.011 31.4689 20.5291C31.1457 20.2421 30.7752 20.0131 30.374 19.8524Z" fill="url(#paint0_linear_149_248)"/>
<defs>
<linearGradient id="paint0_linear_149_248" x1="32" y1="19.5833" x2="32" y2="44.4167" gradientUnits="userSpaceOnUse">
<stop stop-color="#FFB545"/>
<stop offset="1" stop-color="#FFD28D"/>
</linearGradient>
</defs>
</svg>
